<!DOCTYPE svg PUBLIC "-//W3C//DTD SVG 1.1//EN" "http://www.w3.org/Graphics/SVG/1.1/DTD/svg11.dtd">
<!-- Uploaded to: SVG Repo, www.svgrepo.com, Transformed by: SVG Repo Mixer Tools -->
<svg fill="#94c2ff" height="800px" width="800px" version="1.1" id="Capa_1" xmlns="http://www.w3.org/2000/svg" xmlns:xlink="http://www.w3.org/1999/xlink" viewBox="0 0 463 463" xml:space="preserve" stroke="#94c2ff">
<g id="SVGRepo_bgCarrier" stroke-width="0"/>
<g id="SVGRepo_tracerCarrier" stroke-linecap="round" stroke-linejoin="round"/>
<g id="SVGRepo_iconCarrier"> <g> <path d="M36.403,166.737c4.142,0,7.5-3.358,7.5-7.5v-57.527h57.532c4.142,0,7.5-3.358,7.5-7.5s-3.358-7.5-7.5-7.5H36.403 c-4.142,0-7.5,3.358-7.5,7.5v65.027C28.903,163.379,32.261,166.737,36.403,166.737z"/> <path d="M426.596,86.709h-65.032c-4.142,0-7.5,3.358-7.5,7.5s3.358,7.5,7.5,7.5h57.532v57.527c0,4.142,3.358,7.5,7.5,7.5 s7.5-3.358,7.5-7.5V94.209C434.096,90.067,430.738,86.709,426.596,86.709z"/> <path d="M426.596,296.258c-4.142,0-7.5,3.358-7.5,7.5v57.527h-57.532c-4.142,0-7.5,3.358-7.5,7.5s3.358,7.5,7.5,7.5h65.032 c4.142,0,7.5-3.358,7.5-7.5v-65.027C434.096,299.616,430.738,296.258,426.596,296.258z"/> <path d="M101.435,361.285H43.903v-57.527c0-4.142-3.358-7.5-7.5-7.5s-7.5,3.358-7.5,7.5v65.027c0,4.142,3.358,7.5,7.5,7.5h65.032 c4.142,0,7.5-3.358,7.5-7.5S105.577,361.285,101.435,361.285z"/> <path d="M368.79,239c4.142,0,7.5-3.358,7.5-7.5s-3.358-7.5-7.5-7.5h-57.896c-3.794-40.474-37.946-72.258-79.395-72.258 c-41.448,0-75.6,31.785-79.394,72.258H94.209c-4.142,0-7.5,3.358-7.5,7.5s3.358,7.5,7.5,7.5h57.896 c3.794,40.473,37.946,72.258,79.394,72.258c41.449,0,75.601-31.785,79.395-72.258H368.79z M231.5,166.742 c33.17,0,60.579,25.073,64.31,57.258H167.19C170.921,191.814,198.33,166.742,231.5,166.742z M231.5,296.258 c-33.17,0-60.579-25.072-64.31-57.258h128.62C292.079,271.185,264.67,296.258,231.5,296.258z"/> <path d="M439.5,57.806h-416c-12.958,0-23.5,10.542-23.5,23.5v300.387c0,12.958,10.542,23.5,23.5,23.5h416 c12.958,0,23.5-10.542,23.5-23.5V81.306C463,68.348,452.458,57.806,439.5,57.806z M448,381.693c0,4.687-3.813,8.5-8.5,8.5h-416 c-4.687,0-8.5-3.813-8.5-8.5V81.306c0-4.687,3.813-8.5,8.5-8.5h416c4.687,0,8.5,3.813,8.5,8.5V381.693z"/> </g> </g>
</svg>